<svg width="194" height="73" viewBox="0 0 194 73" fill="none" xmlns="http://www.w3.org/2000/svg">
<path fill-rule="evenodd" clip-rule="evenodd" d="M55.2388 57.9931C55.8111 57.9272 56.3394 57.9931 56.9448 57.812C58.4967 57.3511 58.172 57.2358 58.6563 56.9011C62.7836 52.3249 61.8701 47.7322 58.8764 46.4153C54.8096 44.6265 57.3575 50.1959 47.4079 43.3042C44.9755 41.6196 43.3356 39.551 41.3599 38.2396C40.4409 39.145 40.0502 40.8514 41.5911 44.8735C33.8867 36.9446 34.6681 34.0255 35.5376 24.7579C30.4197 25.5261 27.2169 26.0912 22.132 24.7304C17.4543 23.4794 15.6933 21.4656 12.6611 19.6384C2.13365 23.8525 -8.00862 49.8941 9.43629 65.4774C19.2649 74.2567 35.312 76.0729 47.2758 67.0632C50.8748 64.3526 52.5698 61.7133 55.2388 57.9931ZM34.0903 58.657C30.5518 61.5048 26.4905 63.4637 21.7633 63.4143C17.5314 63.3704 13.3545 61.4719 9.99211 58.5472C9.51334 58.1302 9.26019 57.587 9.24919 56.9505C9.23818 56.314 9.47482 55.7653 9.94258 55.3318L10.3223 54.9806C11.1368 54.2234 12.3805 54.207 13.2224 54.9368C15.7374 57.1151 18.8026 58.5472 21.8128 58.5802C25.3293 58.6186 28.3726 57.0438 31.0141 54.9203C31.9056 54.207 33.1878 54.3003 33.9692 55.1343L34.3214 55.5129C34.7452 55.9683 34.9378 56.5225 34.8938 57.1426C34.8497 57.7626 34.5746 58.2784 34.0903 58.6734V58.657Z" fill="white"/>
<path d="M38.4541 1.36146L59.7788 13.872C59.9604 13.9817 60.0814 14.1408 60.1365 14.3439C60.186 14.5524 60.1585 14.7444 60.0484 14.931L54.2041 24.5827C54.0775 24.7912 53.8794 24.9175 53.6373 24.9504C53.3951 24.9778 53.1695 24.901 52.9989 24.7254C45.179 16.846 43.8362 15.6937 33.8315 10.5688C33.4573 10.3767 33.3087 9.92129 33.4903 9.54817L37.3755 1.69068C37.4746 1.49315 37.6342 1.35597 37.8433 1.29561C38.0579 1.22977 38.2615 1.2572 38.4541 1.36694V1.36146Z" fill="#FF5C00"/>
<path d="M60.5713 4.62599C57.9958 3.70965 47.804 0.219876 41.5965 0.000393352C41.2388 -0.0105808 40.9306 0.208902 40.8315 0.554587C40.7325 0.894786 40.8701 1.25145 41.1782 1.43252L60.3126 12.6591C60.5217 12.7798 60.7529 12.8017 60.984 12.7139C61.2096 12.6261 61.3692 12.456 61.4407 12.2256C61.8865 10.7825 62.2167 8.31879 61.0335 5.09788C60.951 4.8784 60.7914 4.71927 60.5713 4.63697V4.62599Z" fill="#FF5C00"/>
<path d="M61.0723 15.8031L55.4096 25.1476C55.283 25.3561 55.261 25.592 55.3491 25.8225C55.4371 26.0529 55.6077 26.2285 55.8499 26.2834C60.3019 27.2217 60.5716 28.0063 64.82 28.9172C65.1116 28.9775 65.3978 28.9227 65.6014 28.7032L70.4662 23.4905C70.6148 23.3314 70.6863 23.1393 70.6698 22.9198C70.6533 22.7003 70.5597 22.5193 70.3946 22.3766L62.217 15.611C62.0409 15.4629 61.8263 15.408 61.5951 15.4464C61.364 15.4848 61.1824 15.6056 61.0668 15.8086L61.0723 15.8031Z" fill="#FF5C00"/>
<path d="M70.5426 18.9088C69.2769 15.4574 66.707 11.7262 64.5442 8.95521C64.3406 8.69183 64.0049 8.59307 63.6913 8.69732C63.3776 8.80706 63.174 9.0869 63.1685 9.42161C63.163 11.172 62.7722 12.5163 62.431 13.3668C62.3045 13.6796 62.3925 14.0253 62.6567 14.2447L69.3265 19.7647C69.5961 19.9897 69.9758 20.0062 70.262 19.8032C70.5481 19.6001 70.6637 19.2435 70.5426 18.9142V18.9088Z" fill="#FF5C00"/>
<path d="M68.7051 52.536V37.4904H71.3796V43.6085H73.5038L75.5565 39.9761C75.9582 39.2573 76.3434 38.6976 76.7121 38.297C77.0808 37.8965 77.4661 37.6166 77.8678 37.4575C78.2695 37.2984 78.7263 37.2161 79.2546 37.2161C79.4252 37.2161 79.6068 37.227 79.7939 37.249C79.9865 37.2709 80.1516 37.3203 80.2892 37.3971L79.8489 39.8114C79.7278 39.7785 79.6123 39.7621 79.5132 39.7566C79.4142 39.7511 79.3261 39.7456 79.2491 39.7456C78.9079 39.7456 78.6162 39.8444 78.3741 40.0419C78.1264 40.2394 77.8072 40.6784 77.4055 41.3533L75.606 44.5523L80.6579 52.536H77.8183L73.5038 45.7704H71.3796V52.536H68.7051ZM86.7003 52.8103C85.7593 52.8103 84.8843 52.5744 84.0698 52.108C83.2553 51.6416 82.595 50.9667 82.0832 50.0832C81.5769 49.1998 81.3237 48.1408 81.3237 46.8953C81.3237 45.6387 81.5769 44.5687 82.0832 43.6853C82.5895 42.8019 83.2498 42.127 84.0698 41.6606C84.8843 41.1942 85.7593 40.9582 86.7003 40.9582C87.6523 40.9582 88.5383 41.1942 89.3528 41.6606C90.1673 42.127 90.8276 42.8019 91.3394 43.6853C91.8457 44.5687 92.0989 45.6387 92.0989 46.8953C92.0989 48.1353 91.8457 49.1998 91.3394 50.0832C90.8331 50.9667 90.1728 51.6416 89.3528 52.108C88.5383 52.5744 87.6523 52.8103 86.7003 52.8103ZM86.7003 50.6484C87.5313 50.6484 88.1861 50.3027 88.6594 49.6114C89.1382 48.92 89.3748 48.0146 89.3748 46.8953C89.3748 45.7594 89.1382 44.8486 88.6594 44.1572C88.1806 43.4658 87.5313 43.1201 86.7003 43.1201C85.8693 43.1201 85.22 43.4658 84.7522 44.1572C84.2844 44.8486 84.0478 45.7594 84.0478 46.8953C84.0478 48.0146 84.2844 48.92 84.7522 49.6114C85.22 50.3027 85.8693 50.6484 86.7003 50.6484ZM94.7294 56.997V41.2381H96.9196L97.1067 42.4343H97.2003C97.679 42.0337 98.2128 41.6935 98.8017 41.3972C99.396 41.1064 99.9959 40.9582 100.612 40.9582C102.027 40.9582 103.122 41.4795 103.898 42.5221C104.674 43.5646 105.064 44.9583 105.064 46.7087C105.064 47.9982 104.833 49.0956 104.371 50.0119C103.909 50.9228 103.314 51.6196 102.582 52.0915C101.85 52.5689 101.063 52.8048 100.216 52.8048C99.7262 52.8048 99.2309 52.6951 98.7411 52.4701C98.2514 52.2451 97.7726 51.9434 97.3103 51.5593L97.3819 53.4468V56.9915H94.7294V56.997ZM99.6657 50.6265C100.42 50.6265 101.052 50.2972 101.559 49.6388C102.065 48.9803 102.318 48.0146 102.318 46.7416C102.318 45.6058 102.126 44.7224 101.74 44.0968C101.355 43.4658 100.733 43.1531 99.8693 43.1531C99.0713 43.1531 98.2404 43.5756 97.3764 44.4206V49.6882C97.7891 50.0284 98.1908 50.2643 98.576 50.4125C98.9613 50.5606 99.3245 50.6319 99.6602 50.6319L99.6657 50.6265ZM107.739 52.536V41.2436H117.358V52.536H114.706V43.3341H110.391V52.536H107.739ZM125.387 52.8103C124.446 52.8103 123.571 52.5744 122.757 52.108C121.942 51.6416 121.282 50.9667 120.77 50.0832C120.264 49.1998 120.011 48.1408 120.011 46.8953C120.011 45.6387 120.264 44.5687 120.77 43.6853C121.276 42.8019 121.937 42.127 122.757 41.6606C123.571 41.1942 124.446 40.9582 125.387 40.9582C126.339 40.9582 127.225 41.1942 128.04 41.6606C128.854 42.127 129.515 42.8019 130.026 43.6853C130.533 44.5687 130.786 45.6387 130.786 46.8953C130.786 48.1353 130.533 49.1998 130.026 50.0832C129.52 50.9667 128.86 51.6416 128.04 52.108C127.225 52.5744 126.339 52.8103 125.387 52.8103ZM125.387 50.6484C126.218 50.6484 126.873 50.3027 127.346 49.6114C127.825 48.92 128.062 48.0146 128.062 46.8953C128.062 45.7594 127.825 44.8486 127.346 44.1572C126.868 43.4658 126.218 43.1201 125.387 43.1201C124.556 43.1201 123.907 43.4658 123.439 44.1572C122.971 44.8486 122.735 45.7594 122.735 46.8953C122.735 48.0146 122.971 48.92 123.439 49.6114C123.907 50.3027 124.556 50.6484 125.387 50.6484ZM133.416 56.997V41.2381H135.607L135.794 42.4343H135.887C136.366 42.0337 136.9 41.6935 137.489 41.3972C138.083 41.1064 138.683 40.9582 139.299 40.9582C140.713 40.9582 141.809 41.4795 142.585 42.5221C143.36 43.5646 143.751 44.9583 143.751 46.7087C143.751 47.9982 143.52 49.0956 143.058 50.0119C142.596 50.9228 142.001 51.6196 141.269 52.0915C140.537 52.5689 139.75 52.8048 138.903 52.8048C138.413 52.8048 137.918 52.6951 137.428 52.4701C136.938 52.2451 136.46 51.9434 135.997 51.5593L136.069 53.4468V56.9915H133.416V56.997ZM138.353 50.6265C139.107 50.6265 139.739 50.2972 140.246 49.6388C140.752 48.9803 141.005 48.0146 141.005 46.7416C141.005 45.6058 140.813 44.7224 140.427 44.0968C140.042 43.4658 139.42 43.1531 138.556 43.1531C137.758 43.1531 136.927 43.5756 136.063 44.4206V49.6882C136.476 50.0284 136.878 50.2643 137.263 50.4125C137.648 50.5606 138.011 50.6319 138.347 50.6319L138.353 50.6265ZM148.897 52.8103C147.912 52.8103 147.108 52.503 146.486 51.8885C145.864 51.2739 145.551 50.4783 145.551 49.4961C145.551 48.2835 146.079 47.3452 147.141 46.6758C148.203 46.0063 149.893 45.5509 152.215 45.3095C152.199 44.7114 152.044 44.1956 151.742 43.7567C151.445 43.3177 150.905 43.1037 150.14 43.1037C149.585 43.1037 149.045 43.2134 148.511 43.4274C147.983 43.6414 147.46 43.9048 146.954 44.2121L145.985 42.4398C146.618 42.0392 147.328 41.699 148.121 41.4027C148.913 41.1119 149.755 40.9637 150.647 40.9637C152.061 40.9637 153.118 41.3807 153.816 42.2148C154.515 43.0488 154.868 44.256 154.868 45.8363V52.5305H152.677L152.49 51.2904H152.397C151.89 51.7184 151.346 52.0805 150.768 52.3713C150.19 52.6622 149.563 52.8103 148.886 52.8103H148.897ZM149.75 50.7417C150.212 50.7417 150.63 50.6319 151.004 50.407C151.379 50.182 151.786 49.8802 152.215 49.4961V46.9666C150.674 47.1641 149.607 47.4604 149.007 47.85C148.407 48.2396 148.104 48.7225 148.104 49.2876C148.104 49.7924 148.258 50.1601 148.566 50.3905C148.875 50.621 149.265 50.7362 149.744 50.7362L149.75 50.7417ZM166.727 56.4921V52.536H158.054V41.2436H160.706V50.4234H164.905V41.2436H167.558V50.4234H169.286V52.1464L169.011 56.4921H166.727ZM171.316 52.536V41.2436H173.903V45.1339C173.903 45.7155 173.875 46.363 173.82 47.0763C173.765 47.7896 173.716 48.5085 173.672 49.2273H173.743C173.941 48.8761 174.184 48.47 174.459 48.0201C174.734 47.5702 174.965 47.1751 175.152 46.8349L178.751 41.2436H181.194V52.536H178.608V48.6456C178.608 48.064 178.636 47.411 178.691 46.6922C178.746 45.9734 178.801 45.2601 178.861 44.5523H178.768C178.569 44.8925 178.333 45.2875 178.063 45.7485C177.794 46.2094 177.557 46.6099 177.359 46.9446L173.76 52.536H171.316ZM190.742 52.536V48.4865H189.08H189.036L186.384 52.536H183.407L186.615 48.0256C185.982 47.7512 185.454 47.3507 185.025 46.8294C184.595 46.3081 184.381 45.6277 184.381 44.7827C184.381 43.8938 184.584 43.1915 184.992 42.6757C185.399 42.1599 185.949 41.7923 186.643 41.5728C187.336 41.3478 188.112 41.2381 188.97 41.2381H193.4V52.5305H190.748L190.742 52.536ZM189.334 46.6264H190.742V43.2244H189.334C188.596 43.2244 188.024 43.3561 187.617 43.614C187.209 43.8719 187.006 44.2889 187.006 44.8541C187.006 45.4083 187.209 45.8417 187.617 46.1545C188.024 46.4673 188.596 46.6264 189.334 46.6264Z" fill="white"/>
<path d="M74.5603 72.7754C73.3001 72.7754 72.1554 72.4736 71.1208 71.8755C70.0918 71.2774 69.2718 70.3995 68.6664 69.2417C68.0611 68.084 67.7529 66.6793 67.7529 65.0222C67.7529 63.3815 68.0666 61.9769 68.6885 60.8026C69.3103 59.6284 70.1468 58.734 71.1924 58.114C72.238 57.4939 73.3936 57.1812 74.6539 57.1812C75.6059 57.1812 76.4534 57.3732 77.1908 57.7573C77.9282 58.1414 78.5391 58.5858 79.0123 59.0907L77.5815 60.8136C77.1963 60.413 76.7725 60.0948 76.2993 59.8588C75.8315 59.6229 75.3032 59.5022 74.7199 59.5022C73.9054 59.5022 73.179 59.7217 72.5407 60.1551C71.9023 60.5941 71.4015 61.2196 71.0383 62.0317C70.6751 62.8438 70.499 63.8205 70.499 64.9508C70.499 66.6683 70.8732 68.0126 71.6271 68.9893C72.3811 69.9605 73.3881 70.4489 74.6483 70.4489C75.3252 70.4489 75.9251 70.3062 76.4479 70.0264C76.9707 69.7411 77.4494 69.3734 77.8787 68.9125L79.3095 70.5915C78.6931 71.2994 77.9887 71.8371 77.1963 72.2157C76.4038 72.5888 75.5233 72.7809 74.5548 72.7809L74.5603 72.7754ZM87.8283 72.5011V68.3364C87.4761 68.3967 87.157 68.4461 86.8818 68.4845C86.6066 68.5229 86.2214 68.5449 85.7261 68.5449C84.3393 68.5449 83.2332 68.2211 82.4023 67.5792C81.5713 66.9372 81.1585 65.8672 81.1585 64.3802V61.2032H83.8111V64.3802C83.8111 65.088 84.0092 65.6038 84.3999 65.933C84.7906 66.2623 85.418 66.4269 86.282 66.4269C86.8213 66.4269 87.3331 66.372 87.8283 66.2677V61.2087H90.4808V72.5011H87.8283ZM96.5948 72.7754C95.6098 72.7754 94.8063 72.4681 94.1844 71.8536C93.5626 71.239 93.2489 70.4434 93.2489 69.4612C93.2489 68.2486 93.7772 67.3103 94.8393 66.6409C95.9014 65.9714 97.5909 65.516 99.9132 65.2746C99.8967 64.6765 99.7426 64.1607 99.4399 63.7217C99.1428 63.2828 98.6035 63.0688 97.8385 63.0688C97.2827 63.0688 96.7434 63.1785 96.2096 63.3925C95.6813 63.6065 95.1585 63.8699 94.6522 64.1772L93.6837 62.4048C94.3165 62.0043 95.0264 61.6641 95.8189 61.3678C96.6113 61.077 97.4533 60.9288 98.3448 60.9288C99.7591 60.9288 100.816 61.3458 101.515 62.1799C102.214 63.0139 102.566 64.2211 102.566 65.8013V72.4956H100.375L100.188 71.2555H100.095C99.5885 71.6835 99.0437 72.0456 98.4659 72.3364C97.888 72.6273 97.2607 72.7754 96.5838 72.7754H96.5948ZM97.4478 70.7068C97.9101 70.7068 98.3283 70.597 98.7025 70.3721C99.0767 70.1471 99.484 69.8453 99.9132 69.4612V66.9317C98.3723 67.1292 97.3047 67.4255 96.7049 67.8151C96.105 68.2047 95.8024 68.6875 95.8024 69.2527C95.8024 69.7575 95.9564 70.1252 96.2646 70.3556C96.5728 70.5861 96.9635 70.7013 97.4423 70.7013L97.4478 70.7068ZM110.485 72.7754C109.456 72.7754 108.526 72.5395 107.706 72.0731C106.88 71.6067 106.231 70.9318 105.747 70.0483C105.262 69.1649 105.02 68.1059 105.02 66.8603C105.02 65.6038 105.279 64.5338 105.807 63.6504C106.33 62.767 107.023 62.0921 107.893 61.6257C108.762 61.1593 109.698 60.9233 110.694 60.9233C111.415 60.9233 112.048 61.044 112.587 61.291C113.126 61.5379 113.599 61.8342 114.018 62.1908L112.724 63.9138C112.433 63.6559 112.13 63.4529 111.822 63.3047C111.514 63.1566 111.184 63.0852 110.831 63.0852C109.923 63.0852 109.18 63.4309 108.603 64.1223C108.025 64.8137 107.739 65.7245 107.739 66.8603C107.739 67.9797 108.019 68.8851 108.581 69.5764C109.142 70.2678 109.868 70.6135 110.76 70.6135C111.206 70.6135 111.624 70.5202 112.015 70.3282C112.405 70.1361 112.763 69.9112 113.088 69.6478L114.172 71.3982C113.649 71.8591 113.066 72.2047 112.416 72.4352C111.772 72.6657 111.123 72.7809 110.479 72.7809L110.485 72.7754ZM118.651 72.5011V63.2992H115.096V61.2032H124.881V63.2992H121.326V72.5011H118.651ZM127.165 72.5011V61.2087H129.817V65.0716H131.523C132.431 65.0716 133.24 65.1923 133.945 65.4392C134.654 65.6861 135.205 66.0757 135.606 66.6134C136.008 67.1512 136.206 67.8645 136.206 68.7534C136.206 69.6588 136.008 70.3885 135.606 70.9372C135.205 71.4914 134.654 71.8865 133.945 72.1334C133.235 72.3803 132.431 72.5011 131.523 72.5011H127.165ZM129.817 70.4544H131.342C132.882 70.4544 133.647 69.8782 133.647 68.7314C133.647 67.6285 132.877 67.0743 131.342 67.0743H129.817V70.4544ZM144.742 72.5011V68.4516H143.08H143.036L140.383 72.5011H137.406L140.614 67.9907C139.981 67.7163 139.453 67.3158 139.024 66.7945C138.595 66.2732 138.38 65.5928 138.38 64.7478C138.38 63.8589 138.584 63.1566 138.991 62.6408C139.398 62.125 139.948 61.7574 140.642 61.5379C141.335 61.3129 142.111 61.2032 142.97 61.2032H147.4V72.4956H144.747L144.742 72.5011ZM143.333 66.5915H144.742V63.1895H143.333C142.595 63.1895 142.023 63.3212 141.616 63.5791C141.209 63.837 141.005 64.254 141.005 64.8192C141.005 65.3733 141.209 65.8068 141.616 66.1196C142.023 66.4324 142.595 66.5915 143.333 66.5915Z" fill="white"/>
</svg>
